<?xml version="1.0" encoding="UTF-8" standalone="no"?>
<!DOCTYPE svg PUBLIC "-//W3C//DTD SVG 1.1//EN"
 "http://www.w3.org/Graphics/SVG/1.1/DTD/svg11.dtd">
<!-- Generated by graphviz version 2.34.0 (20130907.0228)
 -->
<!-- Title: G Pages: 1 -->
<svg width="387pt" height="404pt"
 viewBox="0.00 0.00 387.00 404.00" xmlns="http://www.w3.org/2000/svg" xmlns:xlink="http://www.w3.org/1999/xlink">
<g id="graph0" class="graph" transform="scale(1 1) rotate(0) translate(4 400)">
<title>G</title>
<polygon fill="white" stroke="white" points="-4,4 -4,-400 383,-400 383,4 -4,4"/>
<!-- 0 -->
<g id="node1" class="node"><title>0</title>
<ellipse fill="none" stroke="black" cx="134" cy="-378" rx="18" ry="18"/>
<text text-anchor="middle" x="134" y="-372.4" font-family="Times,serif" font-size="14.00">0</text>
</g>
<!-- 4 -->
<g id="node2" class="node"><title>4</title>
<ellipse fill="none" stroke="black" cx="295" cy="-108" rx="18" ry="18"/>
<text text-anchor="middle" x="295" y="-102.4" font-family="Times,serif" font-size="14.00">4</text>
</g>
<!-- 0&#45;&gt;4 -->
<g id="edge1" class="edge"><title>0&#45;&gt;4</title>
<path fill="none" stroke="black" d="M145.252,-363.866C172.32,-331.634 241.66,-245.181 280,-162 283.813,-153.727 286.866,-144.271 289.196,-135.659"/>
<polygon fill="black" stroke="black" points="292.653,-136.259 291.682,-125.709 285.862,-134.562 292.653,-136.259"/>
<text text-anchor="middle" x="243.5" y="-237.4" font-family="Times,serif" font-size="14.00">5</text>
</g>
<!-- 5 -->
<g id="node3" class="node"><title>5</title>
<ellipse fill="none" stroke="black" cx="84" cy="-288" rx="18" ry="18"/>
<text text-anchor="middle" x="84" y="-282.4" font-family="Times,serif" font-size="14.00">5</text>
</g>
<!-- 0&#45;&gt;5 -->
<g id="edge2" class="edge"><title>0&#45;&gt;5</title>
<path fill="none" stroke="black" d="M124.876,-362.089C121.139,-355.906 116.806,-348.639 113,-342 107.657,-332.68 101.947,-322.334 97.0197,-313.275"/>
<polygon fill="black" stroke="black" points="100.053,-311.526 92.2157,-304.397 93.8966,-314.858 100.053,-311.526"/>
<text text-anchor="middle" x="116.5" y="-327.4" font-family="Times,serif" font-size="14.00">7</text>
</g>
<!-- 9 -->
<g id="node4" class="node"><title>9</title>
<ellipse fill="none" stroke="black" cx="134" cy="-108" rx="18" ry="18"/>
<text text-anchor="middle" x="134" y="-102.4" font-family="Times,serif" font-size="14.00">9</text>
</g>
<!-- 0&#45;&gt;9 -->
<g id="edge3" class="edge"><title>0&#45;&gt;9</title>
<path fill="none" stroke="black" d="M134,-359.828C134,-314.447 134,-191.059 134,-136.071"/>
<polygon fill="black" stroke="black" points="137.5,-136.029 134,-126.029 130.5,-136.029 137.5,-136.029"/>
<text text-anchor="middle" x="141" y="-237.4" font-family="Times,serif" font-size="14.00">20</text>
</g>
<!-- 7 -->
<g id="node6" class="node"><title>7</title>
<ellipse fill="none" stroke="black" cx="18" cy="-108" rx="18" ry="18"/>
<text text-anchor="middle" x="18" y="-102.4" font-family="Times,serif" font-size="14.00">7</text>
</g>
<!-- 5&#45;&gt;7 -->
<g id="edge12" class="edge"><title>5&#45;&gt;7</title>
<path fill="none" stroke="black" d="M73.215,-273.428C62.8708,-259.723 47.5928,-237.554 39,-216 28.6377,-190.007 23.2406,-158.359 20.5296,-136.251"/>
<polygon fill="black" stroke="black" points="23.9986,-135.778 19.4045,-126.231 17.0423,-136.559 23.9986,-135.778"/>
<text text-anchor="middle" x="46" y="-192.4" font-family="Times,serif" font-size="14.00">29</text>
</g>
<!-- 6 -->
<g id="node9" class="node"><title>6</title>
<ellipse fill="none" stroke="black" cx="80" cy="-198" rx="18" ry="18"/>
<text text-anchor="middle" x="80" y="-192.4" font-family="Times,serif" font-size="14.00">6</text>
</g>
<!-- 5&#45;&gt;6 -->
<g id="edge11" class="edge"><title>5&#45;&gt;6</title>
<path fill="none" stroke="black" d="M83.2097,-269.614C82.6473,-257.24 81.8804,-240.369 81.2373,-226.22"/>
<polygon fill="black" stroke="black" points="84.7256,-225.881 80.775,-216.05 77.7328,-226.199 84.7256,-225.881"/>
<text text-anchor="middle" x="89" y="-237.4" font-family="Times,serif" font-size="14.00">21</text>
</g>
<!-- 1 -->
<g id="node5" class="node"><title>1</title>
<ellipse fill="none" stroke="black" cx="217" cy="-198" rx="18" ry="18"/>
<text text-anchor="middle" x="217" y="-192.4" font-family="Times,serif" font-size="14.00">1</text>
</g>
<!-- 1&#45;&gt;4 -->
<g id="edge4" class="edge"><title>1&#45;&gt;4</title>
<path fill="none" stroke="black" d="M228.509,-184.015C241.183,-169.717 261.736,-146.529 276.64,-129.714"/>
<polygon fill="black" stroke="black" points="279.43,-131.843 283.444,-122.038 274.191,-127.2 279.43,-131.843"/>
<text text-anchor="middle" x="269" y="-147.4" font-family="Times,serif" font-size="14.00">87</text>
</g>
<!-- 1&#45;&gt;9 -->
<g id="edge7" class="edge"><title>1&#45;&gt;9</title>
<path fill="none" stroke="black" d="M208.792,-181.568C202.398,-170.394 192.812,-155.326 182,-144 174.887,-136.549 166.019,-129.585 157.847,-123.862"/>
<polygon fill="black" stroke="black" points="159.623,-120.839 149.369,-118.174 155.723,-126.652 159.623,-120.839"/>
<text text-anchor="middle" x="203" y="-147.4" font-family="Times,serif" font-size="14.00">38</text>
</g>
<!-- 1&#45;&gt;7 -->
<g id="edge5" class="edge"><title>1&#45;&gt;7</title>
<path fill="none" stroke="black" d="M202.505,-187.025C184.736,-175.212 153.359,-155.668 124,-144 92.5454,-131.499 81.6365,-138.034 50,-126 47.4423,-125.027 44.8298,-123.894 42.2551,-122.683"/>
<polygon fill="black" stroke="black" points="43.7598,-119.522 33.2602,-118.105 40.5846,-125.76 43.7598,-119.522"/>
<text text-anchor="middle" x="168" y="-147.4" font-family="Times,serif" font-size="14.00">28</text>
</g>
<!-- 8 -->
<g id="node7" class="node"><title>8</title>
<ellipse fill="none" stroke="black" cx="152" cy="-18" rx="18" ry="18"/>
<text text-anchor="middle" x="152" y="-12.4" font-family="Times,serif" font-size="14.00">8</text>
</g>
<!-- 1&#45;&gt;8 -->
<g id="edge6" class="edge"><title>1&#45;&gt;8</title>
<path fill="none" stroke="black" d="M217.761,-179.539C217.788,-169.069 217.063,-155.583 214,-144 204.007,-106.205 181.974,-66.3864 167.052,-42.1154"/>
<polygon fill="black" stroke="black" points="169.998,-40.2253 161.722,-33.6112 164.067,-43.9431 169.998,-40.2253"/>
<text text-anchor="middle" x="211.5" y="-102.4" font-family="Times,serif" font-size="14.00">6</text>
</g>
<!-- 7&#45;&gt;8 -->
<g id="edge16" class="edge"><title>7&#45;&gt;8</title>
<path fill="none" stroke="black" d="M22.3327,-90.5005C26.2051,-78.7957 33.0018,-63.5312 44,-54 66.4752,-34.5227 99.9764,-25.8465 123.698,-22.0053"/>
<polygon fill="black" stroke="black" points="124.428,-25.4366 133.834,-20.5592 123.439,-18.5068 124.428,-25.4366"/>
<text text-anchor="middle" x="51" y="-57.4" font-family="Times,serif" font-size="14.00">60</text>
</g>
<!-- 3 -->
<g id="node8" class="node"><title>3</title>
<ellipse fill="none" stroke="black" cx="326" cy="-378" rx="18" ry="18"/>
<text text-anchor="middle" x="326" y="-372.4" font-family="Times,serif" font-size="14.00">3</text>
</g>
<!-- 3&#45;&gt;4 -->
<g id="edge8" class="edge"><title>3&#45;&gt;4</title>
<path fill="none" stroke="black" d="M326.532,-359.777C327.352,-320.793 327.23,-223.043 309,-144 308.25,-140.748 307.243,-137.402 306.112,-134.13"/>
<polygon fill="black" stroke="black" points="309.338,-132.769 302.475,-124.697 302.807,-135.287 309.338,-132.769"/>
<text text-anchor="middle" x="330" y="-237.4" font-family="Times,serif" font-size="14.00">48</text>
</g>
<!-- 3&#45;&gt;5 -->
<g id="edge9" class="edge"><title>3&#45;&gt;5</title>
<path fill="none" stroke="black" d="M309.366,-370.951C268.006,-355.911 160.254,-316.729 110.227,-298.537"/>
<polygon fill="black" stroke="black" points="111.344,-295.219 100.75,-295.091 108.952,-301.798 111.344,-295.219"/>
<text text-anchor="middle" x="233" y="-327.4" font-family="Times,serif" font-size="14.00">54</text>
</g>
<!-- 3&#45;&gt;8 -->
<g id="edge10" class="edge"><title>3&#45;&gt;8</title>
<path fill="none" stroke="black" d="M337.846,-364.088C351.476,-347.84 372,-318.479 372,-289 372,-289 372,-289 372,-107 372,-66.0469 238.919,-35.5649 179.767,-24.039"/>
<polygon fill="black" stroke="black" points="180.11,-20.5414 169.632,-22.1093 178.801,-27.4179 180.11,-20.5414"/>
<text text-anchor="middle" x="375.5" y="-192.4" font-family="Times,serif" font-size="14.00">3</text>
</g>
<!-- 6&#45;&gt;9 -->
<g id="edge15" class="edge"><title>6&#45;&gt;9</title>
<path fill="none" stroke="black" d="M86.6498,-181.211C91.4592,-170.411 98.4225,-155.942 106,-144 108.947,-139.355 112.401,-134.607 115.858,-130.167"/>
<polygon fill="black" stroke="black" points="118.804,-132.09 122.376,-122.115 113.364,-127.686 118.804,-132.09"/>
<text text-anchor="middle" x="113" y="-147.4" font-family="Times,serif" font-size="14.00">40</text>
</g>
<!-- 6&#45;&gt;7 -->
<g id="edge13" class="edge"><title>6&#45;&gt;7</title>
<path fill="none" stroke="black" d="M66.5688,-185.967C59.2728,-179.507 50.451,-170.889 44,-162 37.8994,-153.594 32.5543,-143.537 28.3227,-134.454"/>
<polygon fill="black" stroke="black" points="31.4325,-132.833 24.1848,-125.105 25.0314,-135.666 31.4325,-132.833"/>
<text text-anchor="middle" x="51" y="-147.4" font-family="Times,serif" font-size="14.00">61</text>
</g>
<!-- 6&#45;&gt;8 -->
<g id="edge14" class="edge"><title>6&#45;&gt;8</title>
<path fill="none" stroke="black" d="M79.171,-179.925C78.7508,-158.141 80.181,-119.727 93,-90 101.7,-69.8241 118.002,-50.8958 131.269,-37.665"/>
<polygon fill="black" stroke="black" points="133.868,-40.0215 138.65,-30.5669 129.016,-34.9763 133.868,-40.0215"/>
<text text-anchor="middle" x="100" y="-102.4" font-family="Times,serif" font-size="14.00">14</text>
</g>
</g>
</svg>
